<svg width="18" height="18" viewBox="0 0 18 18" fill="none" xmlns="http://www.w3.org/2000/svg">
<path d="M16.6377 8.8773L9.84549 2.08863L9.39021 1.63336C9.28648 1.53031 9.1462 1.47247 8.99998 1.47247C8.85376 1.47247 8.71348 1.53031 8.60974 1.63336L1.36228 8.8773C1.25599 8.98318 1.17199 9.10928 1.11523 9.24816C1.05847 9.38704 1.03011 9.53588 1.03181 9.6859C1.03885 10.3046 1.55389 10.7986 2.17264 10.7986H2.91971V16.5238H15.0803V10.7986H15.8431C16.1437 10.7986 16.4267 10.6808 16.6394 10.4681C16.7442 10.3637 16.8271 10.2396 16.8836 10.1029C16.94 9.96623 16.9687 9.81971 16.9681 9.67183C16.9681 9.37301 16.8504 9.09 16.6377 8.8773V8.8773ZM9.98435 15.2582H8.0156V11.6722H9.98435V15.2582ZM13.8146 9.53297V15.2582H11.1094V11.2503C11.1094 10.8619 10.7947 10.5472 10.4062 10.5472H7.59373C7.20525 10.5472 6.8906 10.8619 6.8906 11.2503V15.2582H4.18533V9.53297H2.49783L9.00174 3.03433L9.40779 3.44039L15.5039 9.53297H13.8146Z" fill="#8C8C8C"/>
</svg>
