<svg width="101" height="37" viewBox="0 0 101 37" fill="none" xmlns="http://www.w3.org/2000/svg">
<path d="M12.2787 6.56274H10.1395V7.63233H12.2787V6.56274Z" fill="black"/>
<path d="M12.2787 8.7019H10.1395V9.77149H12.2787V8.7019Z" fill="black"/>
<path d="M12.2787 10.8411H10.1395V11.9106H12.2787V10.8411Z" fill="black"/>
<path d="M19.7658 7.09753H18.6962C18.6959 7.3811 18.5831 7.65296 18.3826 7.85347C18.1821 8.05399 17.9102 8.16678 17.6266 8.16712V9.2367C18.1938 9.23607 18.7375 9.01048 19.1386 8.60945C19.5396 8.20842 19.7652 7.66468 19.7658 7.09753Z" fill="black"/>
<path d="M22.4398 9.77149V8.70191C22.1563 8.70157 21.8844 8.58878 21.6839 8.38826C21.4834 8.18775 21.3706 7.91589 21.3702 7.63232H20.3007C20.3013 8.19947 20.5269 8.74321 20.9279 9.14424C21.3289 9.54527 21.8727 9.77086 22.4398 9.77149Z" fill="black"/>
<path d="M28.0545 33.0505C27.1517 33.2146 26.2308 33.2558 25.3169 33.1728L16.0182 32.3274C15.8687 32.3138 15.7303 32.2431 15.6316 32.13C15.5329 32.0169 15.4816 31.8702 15.4884 31.7202C15.4952 31.5703 15.5595 31.4287 15.6679 31.325C15.7764 31.2212 15.9207 31.1633 16.0707 31.1632H23.2419C23.5965 31.1626 23.9365 31.0214 24.1871 30.7705C24.4378 30.5196 24.5787 30.1796 24.5789 29.8249V29.8124C24.5783 29.5314 24.4871 29.2581 24.3189 29.033L23.0944 27.4011C23.0168 27.2972 22.9748 27.1711 22.9745 27.0415V26.9498C22.9745 26.8312 23.0097 26.7152 23.0756 26.6166C23.1414 26.518 23.2351 26.4411 23.3447 26.3957C23.4542 26.3504 23.5748 26.3385 23.6911 26.3616C23.8075 26.3848 23.9143 26.4419 23.9982 26.5257L26.3399 28.8674C26.3896 28.9171 26.4485 28.9565 26.5134 28.9833C26.5783 29.0102 26.6478 29.024 26.7181 29.024H32.6008V27.9544H26.9395L24.7546 25.7693C24.6996 25.7145 24.6409 25.6635 24.5789 25.6167V13.5151C24.5789 13.3732 24.5225 13.2372 24.4223 13.1369C24.322 13.0366 24.1859 12.9803 24.0441 12.9803H23.5093V11.3759H24.3115C24.8079 11.3759 25.284 11.1787 25.635 10.8277C25.9861 10.4766 26.1833 10.0005 26.1833 9.50412C26.1833 9.00769 25.9861 8.5316 25.635 8.18057C25.284 7.82955 24.8079 7.63234 24.3115 7.63234H24.2562C24.524 7.31152 24.6616 6.90194 24.6421 6.48452C24.6225 6.06711 24.4471 5.67222 24.1505 5.37786C23.8539 5.0835 23.4576 4.91108 23.0401 4.89467C22.6225 4.87826 22.214 5.01905 21.8952 5.28922C21.8446 4.7595 21.5984 4.26766 21.2047 3.90973C20.8109 3.55179 20.2979 3.35346 19.7658 3.35346C19.2336 3.35346 18.7206 3.55179 18.3269 3.90973C17.9331 4.26766 17.6869 4.7595 17.6363 5.28922C17.3175 5.01905 16.909 4.87826 16.4914 4.89467C16.0739 4.91108 15.6777 5.0835 15.3811 5.37786C15.0845 5.67222 14.909 6.06711 14.8895 6.48452C14.8699 6.90194 15.0076 7.31152 15.2753 7.63234H15.22C14.9425 7.63209 14.6684 7.69392 14.4178 7.8133V5.49318C14.4178 4.64216 14.0798 3.826 13.478 3.22425C12.8763 2.62249 12.0601 2.28442 11.2091 2.28442C10.3581 2.28442 9.54191 2.62249 8.94016 3.22425C8.3384 3.826 8.00033 4.64216 8.00033 5.49318V12.9803H7.46554C7.32371 12.9803 7.18768 13.0366 7.08739 13.1369C6.98709 13.2372 6.93075 13.3732 6.93075 13.5151V15.8667L4.05898 18.3282H0.513245V19.3978H4.25679C4.38444 19.3978 4.50788 19.3521 4.6048 19.269L7.70446 16.6122C8.02312 16.3392 8.42885 16.1891 8.84845 16.189C8.89225 16.189 8.93507 16.202 8.97149 16.2264C9.00791 16.2507 9.03629 16.2853 9.05305 16.3258C9.06981 16.3662 9.07419 16.4108 9.06564 16.4537C9.05709 16.4967 9.03599 16.5361 9.00501 16.5671L7.08738 18.4848C7.01258 18.5596 6.96164 18.6549 6.94101 18.7586C6.92037 18.8624 6.93096 18.9699 6.97144 19.0676C7.01192 19.1654 7.08047 19.2489 7.16842 19.3076C7.25637 19.3664 7.35977 19.3978 7.46554 19.3978H13.0809C13.1518 19.3978 13.2198 19.4259 13.2699 19.4761C13.3201 19.5262 13.3483 19.5942 13.3483 19.6652C13.3483 19.7361 13.3201 19.8041 13.2699 19.8542C13.2198 19.9044 13.1518 19.9326 13.0809 19.9326H9.06992C8.92808 19.9326 8.79206 19.9889 8.69176 20.0892C8.59147 20.1895 8.53513 20.3255 8.53513 20.4674C8.53513 20.6092 8.59147 20.7452 8.69176 20.8455C8.79206 20.9458 8.92808 21.0021 9.06992 21.0021H14.6852C14.7562 21.0021 14.8242 21.0303 14.8743 21.0805C14.9245 21.1306 14.9526 21.1986 14.9526 21.2695C14.9526 21.3405 14.9245 21.4085 14.8743 21.4586C14.8242 21.5088 14.7562 21.5369 14.6852 21.5369H9.06992C8.92808 21.5369 8.79206 21.5933 8.69176 21.6936C8.59147 21.7939 8.53513 21.9299 8.53513 22.0717C8.53513 22.2136 8.59147 22.3496 8.69176 22.4499C8.79206 22.5502 8.92808 22.6065 9.06992 22.6065H13.6157C13.6866 22.6065 13.7546 22.6347 13.8047 22.6848C13.8549 22.735 13.883 22.803 13.883 22.8739C13.883 22.9448 13.8549 23.0128 13.8047 23.063C13.7546 23.1131 13.6866 23.1413 13.6157 23.1413H9.06992C8.92808 23.1413 8.79206 23.1977 8.69176 23.298C8.59147 23.3982 8.53513 23.5343 8.53513 23.6761C8.53513 23.8179 8.59147 23.954 8.69176 24.0543C8.79206 24.1546 8.92808 24.2109 9.06992 24.2109H11.7105C11.7187 24.2113 11.7264 24.2147 11.7323 24.2205C11.7381 24.2263 11.7417 24.234 11.7422 24.2422C11.7427 24.2504 11.7401 24.2585 11.735 24.265C11.7299 24.2715 11.7226 24.2758 11.7145 24.2772L8.04218 24.7363L4.40386 23.6967C4.35603 23.683 4.30653 23.6761 4.25679 23.6761H0.513245V24.7457H4.18192L6.93075 25.5311V30.6284H6.93202C6.93151 30.6987 6.94496 30.7683 6.97158 30.8334C6.9982 30.8984 7.03745 30.9575 7.08708 31.0072C7.13671 31.057 7.19571 31.0964 7.26068 31.1232C7.32564 31.1499 7.39528 31.1635 7.46554 31.1632H14.5248C14.4348 31.4015 14.4011 31.6573 14.4263 31.9108C14.4515 32.1642 14.535 32.4084 14.6702 32.6242C14.8055 32.8401 14.9887 33.0218 15.2058 33.155C15.4228 33.2883 15.6677 33.3696 15.9214 33.3926L25.22 34.2382C25.5584 34.2691 25.8973 34.2845 26.2367 34.2844C26.9105 34.2844 27.5829 34.2238 28.2458 34.1033L32.6964 33.2941L32.5051 32.2417L28.0545 33.0505ZM13.3483 10.8411C13.3484 10.6993 13.4048 10.5634 13.5051 10.4631C13.6053 10.3629 13.7413 10.3065 13.883 10.3063H14.9526C15.5198 10.3069 16.0635 10.5325 16.4645 10.9336C16.8656 11.3346 17.0912 11.8783 17.0918 12.4455C17.0916 12.5873 17.0352 12.7232 16.935 12.8235C16.8347 12.9237 16.6988 12.9801 16.557 12.9803H15.4874C14.9203 12.9796 14.3765 12.754 13.9755 12.353C13.5745 11.952 13.3489 11.4082 13.3483 10.8411ZM15.22 8.70193H16.557C16.6628 8.70193 16.7662 8.67057 16.8541 8.61181C16.9421 8.55304 17.0106 8.46952 17.0511 8.3718C17.0916 8.27407 17.1022 8.16654 17.0815 8.0628C17.0609 7.95906 17.01 7.86376 16.9352 7.78897L16.133 6.98678C16.0773 6.9311 16.0331 6.86499 16.003 6.79224C15.9729 6.71949 15.9573 6.64151 15.9573 6.56276C15.9573 6.48401 15.9729 6.40603 16.003 6.33328C16.0331 6.26053 16.0773 6.19442 16.133 6.13874C16.1887 6.08305 16.2548 6.03888 16.3275 6.00875C16.4003 5.97861 16.4783 5.9631 16.557 5.9631C16.6358 5.9631 16.7137 5.97861 16.7865 6.00875C16.8592 6.03888 16.9253 6.08305 16.981 6.13874L17.7832 6.94093C17.858 7.01572 17.9533 7.06666 18.057 7.0873C18.1608 7.10793 18.2683 7.09734 18.366 7.05686C18.4638 7.01638 18.5473 6.94783 18.6061 6.85989C18.6648 6.77194 18.6962 6.66854 18.6962 6.56276V5.49318C18.6962 5.2095 18.8089 4.93745 19.0094 4.73687C19.21 4.53628 19.4821 4.42359 19.7658 4.42359C20.0494 4.42359 20.3215 4.53628 20.5221 4.73687C20.7227 4.93745 20.8353 5.2095 20.8353 5.49318V6.56276C20.8353 6.66854 20.8667 6.77194 20.9255 6.85989C20.9842 6.94783 21.0678 7.01638 21.1655 7.05686C21.2632 7.09734 21.3707 7.10793 21.4745 7.0873C21.5782 7.06666 21.6735 7.01572 21.7483 6.94093L22.5505 6.13874C22.6062 6.08305 22.6723 6.03888 22.745 6.00875C22.8178 5.97861 22.8958 5.9631 22.9745 5.9631C23.0533 5.9631 23.1312 5.97861 23.204 6.00875C23.2767 6.03888 23.3428 6.08305 23.3985 6.13874C23.4542 6.19442 23.4984 6.26053 23.5285 6.33328C23.5587 6.40603 23.5742 6.48401 23.5742 6.56276C23.5742 6.64151 23.5587 6.71949 23.5285 6.79224C23.4984 6.86499 23.4542 6.9311 23.3985 6.98678L22.5963 7.78897C22.5215 7.86376 22.4706 7.95906 22.45 8.0628C22.4293 8.16654 22.4399 8.27407 22.4804 8.3718C22.5209 8.46952 22.5894 8.55304 22.6774 8.61181C22.7653 8.67057 22.8687 8.70193 22.9745 8.70193H24.3115C24.5242 8.70193 24.7283 8.78644 24.8787 8.93688C25.0292 9.08732 25.1137 9.29136 25.1137 9.50412C25.1137 9.71687 25.0292 9.92091 24.8787 10.0713C24.7283 10.2218 24.5242 10.3063 24.3115 10.3063H22.9745C22.8327 10.3063 22.6966 10.3626 22.5964 10.4629C22.4961 10.5632 22.4397 10.6993 22.4397 10.8411V11.1259C21.8157 10.5655 20.9967 10.2723 20.1588 10.3095C19.3208 10.3466 18.531 10.7111 17.959 11.3245C17.7298 10.7119 17.3192 10.1839 16.782 9.81084C16.2448 9.43779 15.6066 9.23751 14.9526 9.23672H14.4646C14.52 9.08052 14.6223 8.94527 14.7575 8.84952C14.8928 8.75377 15.0543 8.70222 15.22 8.70193ZM22.372 12.9803H18.2291C18.3475 12.5209 18.6153 12.1139 18.9903 11.8233C19.3652 11.5328 19.8262 11.3751 20.3006 11.3751C20.7749 11.3751 21.2359 11.5328 21.6108 11.8233C21.9858 12.1139 22.2536 12.5209 22.372 12.9803ZM9.06992 5.49318C9.06992 4.92583 9.29529 4.38173 9.69647 3.98056C10.0976 3.57938 10.6417 3.35401 11.2091 3.35401C11.7764 3.35401 12.3205 3.57938 12.7217 3.98056C13.1229 4.38173 13.3483 4.92583 13.3483 5.49318V9.3287C13.0357 9.43961 12.7651 9.64451 12.5736 9.91528C12.3821 10.1861 12.2791 10.5094 12.2787 10.8411C12.2781 11.6309 12.5701 12.393 13.0983 12.9803H9.06992V5.49318ZM10.1395 14.0498H11.2091V18.3282H10.1395V14.0498ZM8.84845 15.1194C8.56074 15.1196 8.27474 15.1636 8.00033 15.2501V14.0498H9.06992V15.1398C8.99682 15.1267 8.92272 15.1199 8.84845 15.1194ZM9.06992 18.0149V18.3282H8.7566L9.06992 18.0149ZM10.1395 25.552L11.2091 25.4183V29.3372L10.1395 28.2676V25.552ZM8.06665 25.8111L9.06992 25.6857V28.2677L8.00033 29.3373V25.8153C8.0225 25.8153 8.04465 25.8139 8.06665 25.8111ZM8.7566 30.0936L9.60471 29.2455L10.4528 30.0936H8.7566ZM12.2787 25.188C12.4415 25.09 12.5763 24.9516 12.67 24.7863C12.7637 24.621 12.8131 24.4342 12.8135 24.2442C12.8135 24.233 12.8135 24.2219 12.8129 24.2108H13.6157C13.8157 24.2107 14.0131 24.1657 14.1935 24.0792C14.3738 23.9927 14.5325 23.8668 14.6578 23.7109C14.7831 23.555 14.8718 23.3729 14.9174 23.1781C14.963 22.9834 14.9643 22.7809 14.9213 22.5855C15.2502 22.5266 15.545 22.3466 15.7478 22.0811C15.9506 21.8156 16.0467 21.4838 16.0171 21.151C15.9875 20.8182 15.8343 20.5086 15.5878 20.2831C15.3413 20.0576 15.0193 19.9325 14.6852 19.9326H14.3911C14.4306 19.7383 14.4264 19.5377 14.3789 19.3453C14.3313 19.1528 14.2416 18.9734 14.1162 18.8198C13.9909 18.6663 13.8329 18.5425 13.6539 18.4575C13.4748 18.3725 13.2791 18.3283 13.0809 18.3282H12.2787V14.0498H23.5093V25.2822C23.0784 25.2994 22.6708 25.4826 22.3718 25.7934C22.0728 26.1042 21.9055 26.5185 21.9049 26.9498V27.0415C21.9057 27.4026 22.0229 27.7539 22.2392 28.0431L23.4636 29.6749C23.4933 29.7146 23.5094 29.7628 23.5095 29.8124V29.8249C23.5096 29.896 23.4815 29.9643 23.4313 30.0146C23.3811 30.065 23.313 30.0934 23.2419 30.0936H12.2787V25.188Z" fill="black"/>
<path d="M45.2378 14.2844V3.62036H48.248C49.1758 3.62036 49.9961 3.82544 50.709 4.2356C51.4219 4.64575 51.9712 5.22925 52.3569 5.98608C52.7476 6.74292 52.9453 7.61206 52.9502 8.59351V9.27466C52.9502 10.2805 52.7549 11.1619 52.3643 11.9187C51.9785 12.6755 51.4243 13.2566 50.7017 13.6619C49.9839 14.0671 49.1465 14.2747 48.1895 14.2844H45.2378ZM46.644 4.77759V13.1345H48.1235C49.2075 13.1345 50.0498 12.7976 50.6504 12.1238C51.2559 11.45 51.5586 10.4905 51.5586 9.24536V8.6228C51.5586 7.41187 51.2729 6.47192 50.7017 5.80298C50.1353 5.12915 49.3296 4.78735 48.2847 4.77759H46.644ZM58.1577 14.4309C57.0835 14.4309 56.2095 14.0793 55.5356 13.3762C54.8618 12.6682 54.5249 11.7234 54.5249 10.5417V10.2927C54.5249 9.50659 54.6738 8.80591 54.9717 8.19067C55.2744 7.57056 55.6943 7.08716 56.2314 6.74048C56.7734 6.38892 57.3594 6.21313 57.9893 6.21313C59.0195 6.21313 59.8203 6.55249 60.3916 7.2312C60.9629 7.90991 61.2485 8.88159 61.2485 10.1462V10.7102H55.8799C55.8994 11.4915 56.1265 12.1238 56.561 12.6072C57.0005 13.0857 57.5571 13.325 58.231 13.325C58.7095 13.325 59.1147 13.2273 59.4468 13.032C59.7788 12.8367 60.0693 12.5779 60.3184 12.2556L61.146 12.9001C60.4819 13.9207 59.4858 14.4309 58.1577 14.4309ZM57.9893 7.32642C57.4424 7.32642 56.9834 7.52661 56.6123 7.927C56.2412 8.32251 56.0117 8.87915 55.9238 9.59692H59.8936V9.49438C59.8545 8.80591 59.6689 8.27368 59.3369 7.89771C59.0049 7.51685 58.5557 7.32642 57.9893 7.32642ZM64.2954 14.2844H62.9404V3.03442H64.2954V14.2844ZM67.9429 14.2844H66.5879V6.35962H67.9429V14.2844ZM66.478 4.25757C66.478 4.03784 66.5439 3.85229 66.6758 3.70093C66.8125 3.54956 67.0127 3.47388 67.2764 3.47388C67.54 3.47388 67.7402 3.54956 67.877 3.70093C68.0137 3.85229 68.082 4.03784 68.082 4.25757C68.082 4.47729 68.0137 4.6604 67.877 4.80688C67.7402 4.95337 67.54 5.02661 67.2764 5.02661C67.0127 5.02661 66.8125 4.95337 66.6758 4.80688C66.5439 4.6604 66.478 4.47729 66.478 4.25757ZM72.7329 12.446L74.6958 6.35962H76.0801L73.2383 14.2844H72.2056L69.3345 6.35962H70.7188L72.7329 12.446ZM80.5698 14.4309C79.4956 14.4309 78.6216 14.0793 77.9478 13.3762C77.2739 12.6682 76.937 11.7234 76.937 10.5417V10.2927C76.937 9.50659 77.0859 8.80591 77.3838 8.19067C77.6865 7.57056 78.1064 7.08716 78.6436 6.74048C79.1855 6.38892 79.7715 6.21313 80.4014 6.21313C81.4316 6.21313 82.2324 6.55249 82.8037 7.2312C83.375 7.90991 83.6606 8.88159 83.6606 10.1462V10.7102H78.292C78.3115 11.4915 78.5386 12.1238 78.9731 12.6072C79.4126 13.0857 79.9692 13.325 80.6431 13.325C81.1216 13.325 81.5269 13.2273 81.8589 13.032C82.1909 12.8367 82.4814 12.5779 82.7305 12.2556L83.5581 12.9001C82.894 13.9207 81.8979 14.4309 80.5698 14.4309ZM80.4014 7.32642C79.8545 7.32642 79.3955 7.52661 79.0244 7.927C78.6533 8.32251 78.4238 8.87915 78.3359 9.59692H82.3057V9.49438C82.2666 8.80591 82.0811 8.27368 81.749 7.89771C81.417 7.51685 80.9678 7.32642 80.4014 7.32642ZM89.0659 7.57544C88.8608 7.54126 88.6387 7.52417 88.3994 7.52417C87.5107 7.52417 86.9077 7.90259 86.5903 8.65942V14.2844H85.2354V6.35962H86.5537L86.5757 7.27515C87.02 6.56714 87.6499 6.21313 88.4653 6.21313C88.729 6.21313 88.9292 6.24731 89.0659 6.31567V7.57544ZM93.043 12.2996L94.8887 6.35962H96.3389L93.1528 15.5076C92.6597 16.8259 91.876 17.4851 90.8018 17.4851L90.5454 17.4631L90.04 17.3679V16.2693L90.4062 16.2986C90.8652 16.2986 91.2217 16.2058 91.4756 16.0203C91.7344 15.8347 91.9468 15.4954 92.1128 15.0022L92.4131 14.1965L89.5859 6.35962H91.0654L93.043 12.2996ZM51.1191 27.575H46.644V32.2844H45.2378V21.6204H51.8442V22.7776H46.644V26.425H51.1191V27.575ZM52.7964 28.2488C52.7964 27.4724 52.9478 26.7742 53.2505 26.1541C53.5581 25.5339 53.9829 25.0554 54.5249 24.7185C55.0718 24.3816 55.6943 24.2131 56.3926 24.2131C57.4717 24.2131 58.3433 24.5867 59.0073 25.3337C59.6763 26.0808 60.0107 27.0745 60.0107 28.3147V28.4099C60.0107 29.1814 59.8618 29.8748 59.564 30.49C59.271 31.1003 58.8486 31.5764 58.2969 31.9182C57.75 32.26 57.1201 32.4309 56.4072 32.4309C55.333 32.4309 54.4614 32.0574 53.7925 31.3103C53.1284 30.5632 52.7964 29.5745 52.7964 28.344V28.2488ZM54.1587 28.4099C54.1587 29.2888 54.3613 29.9944 54.7666 30.5266C55.1768 31.0588 55.7236 31.325 56.4072 31.325C57.0957 31.325 57.6426 31.0564 58.0479 30.5193C58.4531 29.9773 58.6558 29.2205 58.6558 28.2488C58.6558 27.3796 58.4482 26.6765 58.0332 26.1394C57.623 25.5974 57.0762 25.3264 56.3926 25.3264C55.7236 25.3264 55.1841 25.5925 54.7739 26.1248C54.3638 26.657 54.1587 27.4187 54.1587 28.4099ZM61.3511 28.2488C61.3511 27.4724 61.5024 26.7742 61.8052 26.1541C62.1128 25.5339 62.5376 25.0554 63.0796 24.7185C63.6265 24.3816 64.249 24.2131 64.9473 24.2131C66.0264 24.2131 66.8979 24.5867 67.562 25.3337C68.231 26.0808 68.5654 27.0745 68.5654 28.3147V28.4099C68.5654 29.1814 68.4165 29.8748 68.1187 30.49C67.8257 31.1003 67.4033 31.5764 66.8516 31.9182C66.3047 32.26 65.6748 32.4309 64.9619 32.4309C63.8877 32.4309 63.0161 32.0574 62.3472 31.3103C61.6831 30.5632 61.3511 29.5745 61.3511 28.344V28.2488ZM62.7134 28.4099C62.7134 29.2888 62.916 29.9944 63.3213 30.5266C63.7314 31.0588 64.2783 31.325 64.9619 31.325C65.6504 31.325 66.1973 31.0564 66.6025 30.5193C67.0078 29.9773 67.2104 29.2205 67.2104 28.2488C67.2104 27.3796 67.0029 26.6765 66.5879 26.1394C66.1777 25.5974 65.6309 25.3264 64.9473 25.3264C64.2783 25.3264 63.7388 25.5925 63.3286 26.1248C62.9185 26.657 62.7134 27.4187 62.7134 28.4099ZM69.9351 28.2561C69.9351 27.0403 70.2231 26.0637 70.7993 25.3264C71.3755 24.5842 72.1299 24.2131 73.0625 24.2131C73.9902 24.2131 74.7251 24.5305 75.2671 25.1653V21.0344H76.6221V32.2844H75.377L75.311 31.4348C74.769 32.0989 74.0146 32.4309 73.0479 32.4309C72.1299 32.4309 71.3804 32.0549 70.7993 31.303C70.2231 30.551 69.9351 29.5696 69.9351 28.3586V28.2561ZM71.29 28.4099C71.29 29.3083 71.4756 30.0115 71.8467 30.5193C72.2178 31.0271 72.7305 31.281 73.3848 31.281C74.2441 31.281 74.8716 30.8953 75.2671 30.1238V26.4836C74.8618 25.7366 74.2393 25.363 73.3994 25.363C72.7354 25.363 72.2178 25.6194 71.8467 26.1321C71.4756 26.6448 71.29 27.4041 71.29 28.4099Z" fill="black"/>
</svg>
